<?xml version="1.0" encoding="UTF-8" standalone="no"?>
<svg xmlns="http://www.w3.org/2000/svg" version="1.1" xmlns:xlink="http://www.w3.org/1999/xlink" xmlns:svgjs="http://svgjs.dev/svgjs" width="308" height="308" viewBox="0 0 2000 2008">
	<g transform="matrix(1,0,0,1,-0.6528455284552592,0.814456685244636)">
		<svg viewBox="0 0 246 247" data-background-color="#ffffff" preserveAspectRatio="xMidYMid meet" height="2008" width="2000" xmlns="http://www.w3.org/2000/svg" xmlns:xlink="http://www.w3.org/1999/xlink">
			<g id="tight-bounds" transform="matrix(1,0,0,1,0.08029999999999404,-0.09997365579206985)">
				<svg viewBox="0 0 245.8391687356322 247.2" height="247.2" width="245.8391687356322">
					<g>
						<svg viewBox="0 0 245.8391687356322 247.2" height="247.2" width="245.8391687356322">
							<g>
								<svg viewBox="0 0 245.8391687356322 247.2" height="247.2" width="245.8391687356322">
									<g id="textblocktransform">
										<svg viewBox="0 0 245.8391687356322 247.2" height="247.2" width="245.8391687356322" id="textblock">
											<g>
												<svg viewBox="0 0 245.8391687356322 247.2" height="247.2" width="245.8391687356322">
													<path d="M245.264 53.02C244.108 27.36 240.814 20.227 240.814 20.227 230.701-6.202 218.081-0.506 206.743 3.292 186.725 3.446 166.789 9.091 146.817 12.119 104.899 12.581 62.622 4.986 20.911 23.717 16.993 29.464-4.065 24.846 0.697 56.304 1.945 69.39 6.499 83.913 6.36 95.922 6.984 98.026 7.851 93.202 8.221 96.23 9.515 104.39 11.63 100.541 13.364 105.365 10.948 118.246 12.682 128.971 14.335 140.21 11.422 143.135 7.689 141.749 6.013 151.449 5.84 158.479 4.904 157.145 3.875 156.837 3.124 156.632 1.61 157.402 1.864 159.608 2.731 167.152-0.99 171.514 1.344 178.904-0.262 186.91 2.454 193.838 2.084 202.511 2.038 204.255 2.292 205.744 2.696 206.154 4.488 208.361 1.876 212.672 2.153 217.342 20.529 249.262 40.466 227.195 59.293 241.872 64.182 231.608 60.507 245.516 62.46 243.36 63.985 240.846 65.095 251.263 66.817 245.362 67.083 243.668 66.678 239.665 67.626 240.435 68.123 240.846 68.562 240.743 68.631 238.382 68.735 234.841 67.822 237.048 67.58 235.201 70.203 225.861 69.556 248.081 72.018 247.158 71.902 244.438 71.186 240.538 72.653 241.051 74.11 237.151 74.156 233.918 75.45 242.693 75.497 244.592 75.728 245.926 76.098 246.85 80.143 237.305 84.165 250.237 88.406 245.926 91.007 241.205 93.503 248.492 96.138 246.696 97.063 245.259 97.999 242.693 98.889 247.004 109.787 247.928 121.403 244.079 131.735 247.158 159.346 241.41 188.852 249.518 217.965 241.923 224.83 238.998 231.961 234.841 238.653 231.506 238.653 231.506 244.073 222.371 244.073 181.316S245.229 145.393 245.402 112.703C245.576 80.013 246.385 78.679 245.229 53.02Z" opacity="1" fill="#ff0800" data-fill-palette-color="tertiary">
													</path>
													<g transform="matrix(1,0,0,1,55.76832,26.230666666666668)">
														<svg width="134.3025287356322" viewBox="1 -36.99 27.83 40.36" height="194.73866666666666" data-palette-color="#ffffff">
															<path d="M21.26 2.83L20.29 2.22 20.75 0.93 20.46 0.68 19.82 0.68Q19.82 0.73 19.29 0.88L19.29 0.88Q18.77-0.22 18.77-1.35 18.77-2.49 18.82-3.05L18.82-3.05 18.38-3.81 18.51-5.64 18.63-5.4 18.7-5.57 18.38-6.1 18.38-6.64 17.94-7.23 17.99-7.79Q17.99-8.28 17.8-8.96L17.8-8.96Q17.29-8.96 16.56-8.68 15.84-8.4 15.7-8.35L15.7-8.35 15.7-8.91 15.31-8.35 15.5-8.35 15.7-6.64 15.19-5.69 15.7-5.57Q15.7-4.05 15.93-1.18 16.16 1.68 16.16 3.17L16.16 3.17 15.8 2.47 15.75 2.34 15.8 2.42Q15.8 1.32 15.42 0.74 15.04 0.17 13.96 0.17L13.96 0.17Q13.06 1.29 13.06 2.98L13.06 2.98Q13.87 2.25 13.96 1.98L13.96 1.98 13.96 2.66 13.53 3.22Q12.65 3.22 12.55 2.47L12.55 2.47Q12.55 2.56 12.6 2.73 12.65 2.91 12.65 2.98L12.65 2.98Q12.45 2.71 12.3 2.1 12.16 1.49 11.94 1.09 11.72 0.68 11.28 0.68L11.28 0.68Q10.5 0.68 10.5 1.61L10.5 1.61Q10.52 1.44 10.67 1.27 10.82 1.1 10.89 1.1L10.89 1.1 10.45 2.17Q10.33 1.81 10.08 1.32L10.08 1.32Q9.55 0.29 9.55-0.56L9.55-0.56Q9.55-4.64 8.69-6.64L8.69-6.64 9.11-6.64 8.67-11.23 8.69-11.79 8.2-11.79 7.76-14.01 8.2-14.58Q8.2-15.21 7.62-15.21L7.62-15.21 7.3-15.14 7.35-16.28Q7.76-16.6 7.76-17.43L7.76-17.43 6.88-17.43 6.4-27.03Q5.76-27.73 5.4-28.99 5.03-30.25 4.59-30.8 4.15-31.35 3.47-31.52L3.47-31.52Q3.47-32.74 2.23-33.31 1-33.89 1-34.89L1-34.89Q2.1-34.89 4.19-35.49 6.27-36.08 7.35-36.08L7.35-36.08 8.2-35.5Q9.13-36.62 10.25-36.79L10.25-36.79Q11.77-36.99 13.13-36.99L13.13-36.99Q17.75-36.99 19.29-36.18L19.29-36.18 20.04-36.69 21.26-36.62Q21.56-36.23 23.03-35.42 24.51-34.62 25.12-34.41 25.73-34.2 26.66-33.13 27.59-32.06 28.1-32.06L28.1-32.06Q28.83-31.32 28.83-27.72 28.83-24.12 28.1-17.43L28.1-17.43Q28.05-16.97 27.2-14.94 26.34-12.92 26.34-12.23 26.34-11.55 26.51-11.28L26.51-11.28 26.12-11.21Q25.88-10.91 25.35-10.77 24.83-10.62 24.51-10.36 24.19-10.11 24.19-9.45L24.19-9.45Q25.42-8.03 25.59-5.52L25.59-5.52Q25.66-4.64 25.66-3.25L25.66-3.25 25.1-2.88 25.17-2.17Q26.25-0.78 26.25 1.59L26.25 1.59 25.39 3.03 25.17 2.98 24.19 1.86 24.19 2.37Q22.83 2.37 22.66 1.86L22.66 1.86Q22.41 1.1 21.75 0.68L21.75 0.68 21.85 1.71Q21.85 1.93 21.58 2.33 21.31 2.73 21.26 2.83L21.26 2.83ZM15.8-15.39Q16.04-15.26 16.47-15.16 16.89-15.06 17.86-15.04 18.82-15.01 18.77-15.67L18.77-15.67 19.29-15.67Q19.29-16.33 19.82-16.85L19.82-16.85 19.82-18.55Q20.02-18.55 20.15-18.74 20.29-18.92 20.29-19.13 20.29-19.34 20.06-19.67 19.82-20 19.82-20.24L19.82-20.24 17.94-21.92 16.16-21.92 15.7-21.39 15.31-21.92 15.31-21.39 14.84-21.39 15.31-20.78 15.31-18.55Q14.84-18.55 14.84-17.97L14.84-17.97 15.31-17.97Q15.31-17.82 15.31-17.35 15.31-16.87 15.32-16.58 15.33-16.28 15.44-15.91 15.55-15.53 15.8-15.39ZM18.38-14.58L18.77-14.58 18.38-15.14 18.38-14.58ZM16.16 3.37L16.16 3.17Q16.21 3.22 16.21 3.27 16.21 3.32 16.16 3.37L16.16 3.37ZM15.7 2.22L15.75 2.34Q15.7 2.34 15.7 2.22L15.7 2.22Z" opacity="1" transform="matrix(1,0,0,1,0,0)" fill="#ffffff" class="wordmark-text-0" data-fill-palette-color="quaternary" id="text-0">
															</path>
														</svg>
													</g>
												</svg>
											</g>
										</svg>
									</g>
								</svg>
							</g>
							<g>
							</g>
						</svg>
					</g>
					<defs>
					</defs>
				</svg>
				<rect width="245.8391687356322" height="247.2" fill="none" stroke="none" visibility="hidden">
				</rect>
			</g>
		</svg>
	</g>
</svg>
